<svg width="37" height="35" viewBox="0 0 37 35" fill="none" xmlns="http://www.w3.org/2000/svg">
<path d="M19.7057 1.3125V4.375H22.8833C23.448 4.375 23.9999 4.5605 24.4665 4.90525L27.1968 6.92475C27.2643 6.97375 27.3394 6.99883 27.422 7H34.0217C34.3417 7 34.6487 7.13828 34.8749 7.38442C35.1012 7.63056 35.2284 7.9644 35.2284 8.3125C35.2284 8.6606 35.1012 8.99444 34.8749 9.24058C34.6487 9.48672 34.3417 9.625 34.0217 9.625H31.4829L36.8984 23.065C37.0068 23.3337 37.0292 23.6342 36.9621 23.9184C36.895 24.2027 36.7423 24.4543 36.5284 24.633C36.3675 24.7625 36.2012 24.8827 36.0296 24.9935C35.6223 25.26 35.1975 25.4934 34.7586 25.6917C33.3033 26.3537 31.741 26.6922 30.1636 26.6875C28.5866 26.6949 27.0244 26.3569 25.5702 25.6935C25.1312 25.4945 24.7064 25.2606 24.2991 24.9935C24.128 24.8868 23.963 24.7687 23.8052 24.64L23.7972 24.633C23.5832 24.4543 23.4305 24.2027 23.3634 23.9184C23.2963 23.6342 23.3188 23.3337 23.4271 23.065L28.8459 9.625H27.4204C26.8557 9.625 26.3038 9.4395 25.8372 9.09475L23.1069 7.07525C23.0404 7.02627 22.962 7.00006 22.8817 7H19.7057V32.375H26.9248C27.2449 32.375 27.5518 32.5133 27.7781 32.7594C28.0044 33.0056 28.1315 33.3394 28.1315 33.6875C28.1315 34.0356 28.0044 34.3694 27.7781 34.6156C27.5518 34.8617 27.2449 35 26.9248 35H10.0733C9.75322 35 9.4463 34.8617 9.22001 34.6156C8.99371 34.3694 8.86658 34.0356 8.86658 33.6875C8.86658 33.3394 8.99371 33.0056 9.22001 32.7594C9.4463 32.5133 9.75322 32.375 10.0733 32.375H17.2924V7H14.1148C14.0345 7.00006 13.9561 7.02627 13.8896 7.07525L11.1609 9.09475C10.6943 9.4395 10.1424 9.625 9.57771 9.625H8.15223L13.571 23.065C13.6759 23.3261 13.6998 23.6172 13.6391 23.8944C13.5785 24.1716 13.4365 24.4198 13.2347 24.6015C13.106 24.7153 12.9773 24.822 12.736 24.9918C12.3293 25.2788 11.9034 25.5321 11.4617 25.7495C10.009 26.4688 8.43071 26.8389 6.83454 26.8345C5.23837 26.8389 3.6601 26.4688 2.20735 25.7495C1.76571 25.5321 1.33976 25.2788 0.933103 24.9918C0.761848 24.8715 0.595945 24.7424 0.435953 24.605C0.235348 24.4216 0.0942281 24.1729 0.0333973 23.8956C-0.0274335 23.6184 -0.00475673 23.3272 0.0980846 23.065L5.51524 9.625H2.97801C2.65798 9.625 2.35106 9.48672 2.12476 9.24058C1.89847 8.99444 1.77134 8.6606 1.77134 8.3125C1.77134 7.9644 1.89847 7.63056 2.12476 7.38442C2.35106 7.13828 2.65798 7 2.97801 7H9.57771C9.65923 7 9.73485 6.97492 9.80457 6.92475L12.5316 4.90525C12.9982 4.55875 13.5517 4.375 14.1164 4.375H17.2924V1.3125C17.2924 0.964403 17.4195 0.630564 17.6458 0.384422C17.8721 0.138281 18.179 0 18.4991 0C18.8191 0 19.126 0.138281 19.3523 0.384422C19.5786 0.630564 19.7057 0.964403 19.7057 1.3125ZM2.72059 23.0965C3.98652 23.8307 5.3999 24.2125 6.83454 24.2078C8.26918 24.2125 9.68256 23.8307 10.9485 23.0965L6.83454 12.894L2.72059 23.0965ZM26.0657 23.0545C26.1976 23.1245 26.3451 23.198 26.5081 23.275C27.3609 23.6653 28.6078 24.0625 30.1636 24.0625C31.5819 24.0666 32.9827 23.722 34.2614 23.0545L30.1636 12.8922L26.0657 23.0545Z" fill="white"/>
</svg>
